<?xml version="1.0" encoding="utf-8"?>
<!-- Generator: Adobe Illustrator 17.1.0, SVG Export Plug-In . SVG Version: 6.00 Build 0)  -->
<!DOCTYPE svg PUBLIC "-//W3C//DTD SVG 1.1//EN" "http://www.w3.org/Graphics/SVG/1.1/DTD/svg11.dtd">
<svg version="1.1" id="Layer_1" xmlns="http://www.w3.org/2000/svg" xmlns:xlink="http://www.w3.org/1999/xlink" x="0px" y="0px"
	 viewBox="0 0 562.1 561.5" enable-background="new 0 0 562.1 561.5" xml:space="preserve">
<circle fill="#FFFFFF" cx="281.6" cy="509" r="52.6"/>
<circle fill="#FFFFFF" cx="281.6" cy="52.6" r="52.6"/>
<circle fill="none" stroke="#FFFFFF" stroke-width="2" stroke-miterlimit="10" cx="281" cy="281.1" r="228.1"/>
<circle fill="#FFFFFF" cx="509.6" cy="275" r="52.6"/>
<circle fill="#FFFFFF" cx="52.6" cy="275" r="52.6"/>
<circle fill="#FFFFFF" cx="107.6" cy="132" r="52.6"/>
<circle fill="#FFFFFF" cx="456.6" cy="132" r="52.6"/>
<circle fill="#FFFFFF" cx="443.6" cy="441" r="52.6"/>
<circle fill="#FFFFFF" cx="121.6" cy="443" r="52.6"/>
<rect x="91.1" y="117" fill="#A2AD00" width="30" height="30"/>
<rect x="496.4" y="262.1" transform="matrix(0.7071 0.7071 -0.7071 0.7071 345.7088 -280.4611)" fill="#A2AD00" width="30" height="30"/>
<rect x="266" y="495.4" fill="#E98300" width="30" height="30"/>
<rect x="106.1" y="428" transform="matrix(0.7071 0.7071 -0.7071 0.7071 348.7168 44.0886)" fill="#E98300" width="30" height="30"/>
<circle fill="#E98300" cx="456.3" cy="131.7" r="14.3"/>
<circle fill="#A2AD00" cx="53.3" cy="276.7" r="14.3"/>
<polygon fill="#A2AD00" points="430.9,452 443.9,429.5 456.9,452 "/>
<polygon fill="#E98300" points="267.9,61 280.9,38.5 293.9,61 "/>
</svg>
